<svg xmlns="http://www.w3.org/2000/svg" width="px" height="25" viewBox="0 0 25 25"><path style="stroke:none;fill-rule:nonzero;fill:#fff;fill-opacity:1" d="M0 12.5c0-3.45 1.219-6.398 3.66-8.84C6.102 1.22 9.05 0 12.5 0s6.395 1.219 8.836 3.66C23.777 6.102 25 9.05 25 12.5s-1.223 6.395-3.664 8.836C18.895 23.777 15.949 25 12.5 25c-3.45 0-6.398-1.223-8.84-3.664C1.22 18.895 0 15.949 0 12.5Zm1.367 0c0 3.059 1.09 5.68 3.27 7.86 2.183 2.18 4.804 3.273 7.863 3.273s5.68-1.094 7.86-3.274c2.18-2.18 3.273-4.8 3.273-7.859s-1.094-5.68-3.274-7.863c-2.18-2.18-4.8-3.27-7.859-3.27s-5.68 1.09-7.863 3.27C2.457 6.82 1.367 9.44 1.367 12.5Zm3.516 2.684c-.067-.063-.067-.13 0-.196a.523.523 0 0 1 .488-.144c.195.031.309.062.34.097.23.098.48.317.758.657.277.343.496.578.66.71.781.649 1.578.7 2.39.145.067-.226.172-.422.32-.586.145-.16.282-.277.415-.34.129-.066.355-.164.684-.293-1.075-.097-1.946-.285-2.614-.562-.668-.277-1.195-.625-1.586-1.05-.52-.587-.84-1.352-.953-2.294-.113-.945-.039-1.808.219-2.59.195-.488.473-.925.832-1.316-.262-.813-.211-1.742.144-2.785A5.089 5.089 0 0 1 9.812 5.71c1.63-.422 3.32-.438 5.079-.047.23-.164.578-.367 1.05-.61.473-.245 1.067-.382 1.782-.417.132.36.218.781.27 1.27.046.488.023.945-.075 1.366.75.782 1.14 1.825 1.172 3.125 0 1.043-.18 1.907-.535 2.59-.36.684-.992 1.254-1.907 1.707-.617.293-1.43.473-2.441.54.457.226.79.46 1.004.706.21.243.348.625.414 1.149v1.535l.047 1.492c.098.16.21.301.344.414a1.6 1.6 0 0 0 .34.242c.097.051.132.125.097.223-.031.098-.16.145-.39.145-.551 0-.993-.196-1.317-.586a1.106 1.106 0 0 1-.148-.586v-2.344c0-.258-.063-.445-.196-.563a.963.963 0 0 0-.39-.218v3.078c0 .55.066.91.195 1.074.133.16.211.324.246.488.031.032.008.055-.074.07-.082.02-.219-.007-.414-.07-.426-.097-.719-.32-.88-.66a2.508 2.508 0 0 1-.245-1.097v-3.028h-.633v3.028c0 .39-.082.761-.246 1.12-.227.458-.649.7-1.27.735-.097-.035-.144-.066-.144-.098a4.93 4.93 0 0 0 .293-.488c.031-.066.074-.195.12-.39.052-.196.075-.426.075-.684v-3.078a.803.803 0 0 0-.367.218c-.113.118-.172.305-.172.563v2.344c0 .23-.047.426-.144.586-.293.39-.735.586-1.32.586-.227 0-.356-.047-.391-.145-.032-.066-.024-.125.027-.172.047-.05.121-.105.219-.172a1.66 1.66 0 0 0 .195-.144.924.924 0 0 0 .293-.39c.098-.134.121-.473.074-1.028-.05-.55-.058-.91-.027-1.074-.844.293-1.707.148-2.586-.438-.262-.262-.52-.637-.781-1.125-.196-.355-.586-.781-1.172-1.27Zm0 0"/></svg>
