<svg xmlns="http://www.w3.org/2000/svg" width="px" height="25" viewBox="0 0 19 25"><path style="stroke:none;fill-rule:nonzero;fill:#fff;fill-opacity:1" d="M0 9.422C0 6.82.926 4.598 2.781 2.758 4.633.918 6.875 0 9.5 0c2.621 0 4.863.918 6.715 2.758 1.855 1.84 2.781 4.062 2.781 6.664 0 2.05-.441 3.664-1.328 4.836L9.5 25 1.328 14.258C.441 13.086 0 11.473 0 9.422Zm5.512 0c0 1.11.386 2.043 1.156 2.808.77.766 1.715 1.149 2.832 1.149 1.113 0 2.059-.383 2.828-1.149.77-.765 1.156-1.699 1.156-2.808 0-1.106-.386-2.043-1.156-2.805-.77-.765-1.715-1.148-2.828-1.148-1.117 0-2.063.383-2.832 1.148-.77.762-1.156 1.7-1.156 2.805Zm0 0"/></svg>
