<?xml version="1.0" standalone="no"?>
<!DOCTYPE svg PUBLIC "-//W3C//DTD SVG 20010904//EN"
 "http://www.w3.org/TR/2001/REC-SVG-20010904/DTD/svg10.dtd">
<svg version="1.0" xmlns="http://www.w3.org/2000/svg"
 width="305.000000pt" height="305.000000pt" viewBox="0 0 305.000000 305.000000"
 preserveAspectRatio="xMidYMid meet">
<metadata>
Created by potrace 1.14, written by Peter Selinger 2001-2017
</metadata>
<g transform="translate(0.000000,305.000000) scale(0.100000,-0.100000)"
fill="#000000" stroke="none">
<path d="M0 1525 l0 -1525 1525 0 1525 0 0 1525 0 1525 -1525 0 -1525 0 0
-1525z m1870 788 c0 -7 -370 -1187 -456 -1455 l-35 -108 -121 0 -120 0 7 27
c9 38 476 1526 482 1536 5 9 243 9 243 0z m-810 -497 l0 -153 -255 -89 c-140
-48 -255 -91 -255 -94 0 -3 115 -43 255 -90 l255 -85 0 -157 0 -157 -297 121
c-164 67 -361 147 -438 178 l-140 56 -3 136 -3 135 113 47 c499 205 745 305
756 305 9 1 12 -36 12 -153z m1368 -22 l432 -177 0 -136 0 -136 -423 -172
c-232 -95 -430 -175 -440 -179 -16 -6 -17 4 -15 151 l3 157 262 91 262 91
-262 91 -262 90 -3 153 c-1 83 1 152 5 152 5 0 203 -79 441 -176z"/>
</g>
</svg>
